<?xml version="1.0" encoding="UTF-8" standalone="no"?>
<!-- Created with Inkscape (http://www.inkscape.org/) -->

<svg
   width="88.477669mm"
   height="39.345474mm"
   viewBox="0 0 88.477669 39.345474"
   version="1.1"
   id="svg5"
   sodipodi:docname="cartoon_ising.svg"
   inkscape:version="1.1.2 (0a00cf5339, 2022-02-04)"
   xmlns:inkscape="http://www.inkscape.org/namespaces/inkscape"
   xmlns:sodipodi="http://sodipodi.sourceforge.net/DTD/sodipodi-0.dtd"
   xmlns="http://www.w3.org/2000/svg"
   xmlns:svg="http://www.w3.org/2000/svg"
   xmlns:ns8="http://www.iki.fi/pav/software/textext/">
  <sodipodi:namedview
     id="namedview7"
     pagecolor="#ffffff"
     bordercolor="#666666"
     borderopacity="1.0"
     inkscape:pageshadow="2"
     inkscape:pageopacity="0.0"
     inkscape:pagecheckerboard="0"
     inkscape:document-units="mm"
     showgrid="false"
     inkscape:snap-object-midpoints="true"
     inkscape:snap-center="true"
     inkscape:zoom="2.5620932"
     inkscape:cx="216.0343"
     inkscape:cy="131.72823"
     inkscape:window-width="2560"
     inkscape:window-height="1417"
     inkscape:window-x="1920"
     inkscape:window-y="23"
     inkscape:window-maximized="1"
     inkscape:current-layer="layer1"
     fit-margin-top="0"
     fit-margin-left="0"
     fit-margin-right="0"
     fit-margin-bottom="0" />
  <defs
     id="defs2">
    <marker
       style="overflow:visible"
       id="Arrow1Mend"
       refX="0"
       refY="0"
       orient="auto"
       inkscape:stockid="Arrow1Mend"
       inkscape:isstock="true">
      <path
         transform="matrix(-0.4,0,0,-0.4,-4,0)"
         style="fill:context-stroke;fill-rule:evenodd;stroke:context-stroke;stroke-width:1pt"
         d="M 0,0 5,-5 -12.5,0 5,5 Z"
         id="path47049" />
    </marker>
    <marker
       style="overflow:visible"
       id="Arrow1Lend"
       refX="0"
       refY="0"
       orient="auto"
       inkscape:stockid="Arrow1Lend"
       inkscape:isstock="true">
      <path
         transform="matrix(-0.8,0,0,-0.8,-10,0)"
         style="fill:context-stroke;fill-rule:evenodd;stroke:context-stroke;stroke-width:1pt"
         d="M 0,0 5,-5 -12.5,0 5,5 Z"
         id="path47043" />
    </marker>
    <inkscape:perspective
       sodipodi:type="inkscape:persp3d"
       inkscape:vp_x="0 : 9.3454739 : 1"
       inkscape:vp_y="0 : 999.99998 : 0"
       inkscape:vp_z="100.01566 : 12.666666 : 1"
       inkscape:persp3d-origin="50.000002 : -0.65452586 : 1"
       id="perspective1100" />
    <clipPath
       clipPathUnits="userSpaceOnUse"
       id="clipPath4988">
      <path
         d="M 96.65457,0 H 326.79434 V 161.3983 H 96.65457 Z"
         id="path4986" />
    </clipPath>
  </defs>
  <g
     inkscape:label="Layer 1"
     inkscape:groupmode="layer"
     id="layer1"
     transform="translate(-5.4917628,-1.6101015)">
    <g
       id="g3009">
      <g
         id="g26840">
        <path
           style="fill:none;stroke:#000000;stroke-width:0.365;stroke-linecap:round;stroke-linejoin:round;stroke-miterlimit:4;stroke-dasharray:none;stroke-opacity:1"
           d="M 22.120543,13.28517 6.7736876,12.09631"
           id="path3701" />
        <path
           style="fill:none;stroke:#000000;stroke-width:0.365;stroke-linecap:round;stroke-linejoin:miter;stroke-miterlimit:4;stroke-dasharray:1.095, 1.095;stroke-dashoffset:0.511;stroke-opacity:1"
           d="M 6.7736876,12.09631 18.283216,23.370277"
           id="path4346" />
        <path
           style="fill:none;stroke:#000000;stroke-width:0.365;stroke-linecap:round;stroke-linejoin:round;stroke-miterlimit:4;stroke-dasharray:none;stroke-opacity:1"
           d="M 18.283214,23.370277 22.120543,13.28517"
           id="path3703" />
        <path
           style="fill:none;stroke:#000000;stroke-width:0.365;stroke-linecap:round;stroke-linejoin:round;stroke-miterlimit:4;stroke-dasharray:none;stroke-opacity:1"
           d="M 22.120543,13.28517 10.874762,25.703986"
           id="path3705" />
        <circle
           style="fill:#ada9d6;fill-opacity:1;stroke:#000000;stroke-width:0.25932;stroke-miterlimit:4;stroke-dasharray:none;stroke-opacity:1"
           id="path846-3"
           cx="22.120544"
           cy="13.285171"
           r="1.1522651" />
        <path
           style="fill:none;stroke:#000000;stroke-width:0.365;stroke-linecap:round;stroke-linejoin:round;stroke-miterlimit:4;stroke-dasharray:none;stroke-opacity:1"
           d="m 6.7736876,12.09631 4.1010744,13.607676 7.408454,-2.333709"
           id="path4278" />
        <circle
           style="fill:#ada9d6;fill-opacity:1;stroke:#000000;stroke-width:0.25932;stroke-miterlimit:4;stroke-dasharray:none;stroke-opacity:1"
           id="path846-6"
           cx="18.283218"
           cy="23.370277"
           r="1.1522651" />
        <circle
           style="fill:#ada9d6;fill-opacity:1;stroke:#000000;stroke-width:0.25932;stroke-miterlimit:4;stroke-dasharray:none;stroke-opacity:1"
           id="path846-7"
           cx="10.874763"
           cy="25.703987"
           r="1.1522651" />
        <circle
           style="fill:#ada9d6;fill-opacity:1;stroke:#000000;stroke-width:0.25932;stroke-miterlimit:4;stroke-dasharray:none;stroke-opacity:1"
           id="path846"
           cx="6.7736878"
           cy="12.096311"
           r="1.1522651" />
      </g>
      <g
         transform="matrix(0.35267325,0,0,0.35267325,13.385591,8.5582071)"
         ns8:version="1.2.0"
         ns8:texconverter="pdflatex"
         ns8:pdfconverter="inkscape"
         ns8:text="$J$"
         ns8:preamble="/home/tom/.config/inkscape/extensions/textext/default_packages.tex"
         ns8:scale="0.6"
         ns8:alignment="middle center"
         ns8:jacobian_sqrt="0.211667"
         id="g36664">
        <defs
           id="id-e4f890b9-f7a4-490b-8912-899899b72424">
          <g
             id="id-22437838-f5bb-4cbe-a8de-350f9497ffc2">
            <symbol
               overflow="visible"
               id="id-5aa6fa56-f430-49ab-a1f2-5109db4304e1">
              <path
                 style="stroke:none;stroke-width:0"
                 d=""
                 id="id-bd146e94-f48b-47ff-b533-3a79f5ac6673" />
            </symbol>
            <symbol
               overflow="visible"
               id="id-a48e4296-5581-4a49-8cb7-41862d1ba7cf">
              <path
                 style="stroke:none;stroke-width:0"
                 d="M 5.390625,-6.078125 C 5.46875,-6.40625 5.5,-6.5 6.046875,-6.5 c 0.15625,0 0.265625,0 0.265625,-0.1875 0,-0.09375 -0.0625,-0.125 -0.140625,-0.125 -0.25,0 -0.859375,0.03125 -1.109375,0.03125 -0.328125,0 -1.140625,-0.03125 -1.46875,-0.03125 -0.078125,0 -0.203125,0 -0.203125,0.203125 C 3.390625,-6.5 3.46875,-6.5 3.734375,-6.5 c 0.21875,0 0.328125,0 0.578125,0.015625 0.234375,0.03125 0.296875,0.0625 0.296875,0.203125 0,0.0625 -0.015625,0.125 -0.03125,0.203125 L 3.421875,-1.5 C 3.1875,-0.53125 2.515625,0 2,0 1.734375,0 1.203125,-0.09375 1.046875,-0.625 c 0.03125,0.015625 0.09375,0.015625 0.125,0.015625 0.390625,0 0.640625,-0.34375 0.640625,-0.640625 0,-0.3125 -0.265625,-0.421875 -0.4375,-0.421875 -0.171875,0 -0.671875,0.125 -0.671875,0.796875 0,0.625 0.53125,1.09375 1.328125,1.09375 0.90625,0 1.953125,-0.65625 2.203125,-1.640625 z m 0,0"
                 id="id-c90bd769-74b7-423f-8f49-093e9248f465" />
            </symbol>
          </g>
        </defs>
        <g
           id="id-5a45a2ed-66c2-4663-a03e-ad73d57744d3"
           transform="translate(-149.415,-127.953)">
          <g
             style="fill:#000000;fill-opacity:1"
             id="id-25c909a8-80f2-4cbb-a372-999cfba6b163">
            <g
               transform="translate(148.712,134.765)"
               id="g36660">
              <path
                 style="stroke:none;stroke-width:0"
                 d="M 5.390625,-6.078125 C 5.46875,-6.40625 5.5,-6.5 6.046875,-6.5 c 0.15625,0 0.265625,0 0.265625,-0.1875 0,-0.09375 -0.0625,-0.125 -0.140625,-0.125 -0.25,0 -0.859375,0.03125 -1.109375,0.03125 -0.328125,0 -1.140625,-0.03125 -1.46875,-0.03125 -0.078125,0 -0.203125,0 -0.203125,0.203125 C 3.390625,-6.5 3.46875,-6.5 3.734375,-6.5 c 0.21875,0 0.328125,0 0.578125,0.015625 0.234375,0.03125 0.296875,0.0625 0.296875,0.203125 0,0.0625 -0.015625,0.125 -0.03125,0.203125 L 3.421875,-1.5 C 3.1875,-0.53125 2.515625,0 2,0 1.734375,0 1.203125,-0.09375 1.046875,-0.625 c 0.03125,0.015625 0.09375,0.015625 0.125,0.015625 0.390625,0 0.640625,-0.34375 0.640625,-0.640625 0,-0.3125 -0.265625,-0.421875 -0.4375,-0.421875 -0.171875,0 -0.671875,0.125 -0.671875,0.796875 0,0.625 0.53125,1.09375 1.328125,1.09375 0.90625,0 1.953125,-0.65625 2.203125,-1.640625 z m 0,0"
                 id="id-f1641c33-d8d2-4197-9461-7e9fbf674186" />
            </g>
          </g>
        </g>
      </g>
    </g>
    <g
       id="g46861">
      <circle
         style="fill:#e3a5c4;fill-opacity:1;stroke:#000000;stroke-width:0.25932;stroke-miterlimit:4;stroke-dasharray:none;stroke-opacity:1"
         id="path846-3-5"
         cx="55.600101"
         cy="15.180895"
         r="1.1522651" />
      <circle
         style="fill:#e3a5c4;fill-opacity:1;stroke:#000000;stroke-width:0.25932;stroke-miterlimit:4;stroke-dasharray:none;stroke-opacity:1"
         id="path846-3-3"
         cx="37.204956"
         cy="18.079697"
         r="1.1522651" />
      <circle
         style="fill:#e3a5c4;fill-opacity:1;stroke:#000000;stroke-width:0.25932;stroke-miterlimit:4;stroke-dasharray:none;stroke-opacity:1"
         id="path846-3-56"
         cx="46.292027"
         cy="8.3872766"
         r="1.1522651" />
      <circle
         style="fill:#e3a5c4;fill-opacity:1;stroke:#000000;stroke-width:0.25932;stroke-miterlimit:4;stroke-dasharray:none;stroke-opacity:1"
         id="path846-3-2"
         cx="44.59285"
         cy="16.334618"
         r="1.1522651" />
      <circle
         style="fill:#e3a5c4;fill-opacity:1;stroke:#000000;stroke-width:0.25932;stroke-miterlimit:4;stroke-dasharray:none;stroke-opacity:1"
         id="path846-3-9"
         cx="36.791885"
         cy="27.064049"
         r="1.1522651" />
      <circle
         style="fill:#e3a5c4;fill-opacity:1;stroke:#000000;stroke-width:0.25932;stroke-miterlimit:4;stroke-dasharray:none;stroke-opacity:1"
         id="path846-3-1"
         cx="51.089886"
         cy="22.483177"
         r="1.1522651" />
      <text
         xml:space="preserve"
         style="font-size:2.11667px;line-height:1.25;font-family:'Latin Modern Math';-inkscape-font-specification:'Latin Modern Math';letter-spacing:0px;word-spacing:0px;stroke-width:0.264583"
         x="43.604553"
         y="6.438004"
         id="text46711"><tspan
           sodipodi:role="line"
           id="tspan46709"
           style="font-size:2.11667px;stroke-width:0.264583"
           x="43.604553"
           y="6.438004">|↓↓↑↑⟩</tspan><tspan
           sodipodi:role="line"
           style="font-size:2.11667px;stroke-width:0.264583"
           x="43.604553"
           y="9.0838413"
           id="tspan47461" /></text>
      <text
         xml:space="preserve"
         style="font-size:2.11667px;line-height:1.25;font-family:'Latin Modern Math';-inkscape-font-specification:'Latin Modern Math';letter-spacing:0px;word-spacing:0px;stroke-width:0.264583"
         x="55.049671"
         y="13.254282"
         id="text61019"><tspan
           sodipodi:role="line"
           id="tspan61017"
           style="font-size:2.11667px;stroke-width:0.264583"
           x="55.049671"
           y="13.254282">|↓↑↓↑⟩</tspan><tspan
           sodipodi:role="line"
           style="font-size:2.11667px;stroke-width:0.264583"
           x="55.049671"
           y="15.90012"
           id="tspan61021" /></text>
      <text
         xml:space="preserve"
         style="font-size:2.11667px;line-height:1.25;font-family:'Latin Modern Math';-inkscape-font-specification:'Latin Modern Math';letter-spacing:0px;word-spacing:0px;stroke-width:0.264583"
         x="42.272343"
         y="14.335911"
         id="text62869"><tspan
           sodipodi:role="line"
           id="tspan62867"
           style="font-size:2.11667px;stroke-width:0.264583"
           x="42.272343"
           y="14.335911">|↓↑↑↓⟩</tspan><tspan
           sodipodi:role="line"
           style="font-size:2.11667px;stroke-width:0.264583"
           x="42.272343"
           y="16.981749"
           id="tspan62871" /></text>
      <text
         xml:space="preserve"
         style="font-size:2.11667px;line-height:1.25;font-family:'Latin Modern Math';-inkscape-font-specification:'Latin Modern Math';letter-spacing:0px;word-spacing:0px;stroke-width:0.264583"
         x="50.203167"
         y="25.782755"
         id="text64041"><tspan
           sodipodi:role="line"
           id="tspan64039"
           style="font-size:2.11667px;stroke-width:0.264583"
           x="50.203167"
           y="25.782755">|↑↓↓↑⟩</tspan><tspan
           sodipodi:role="line"
           style="font-size:2.11667px;stroke-width:0.264583"
           x="50.203167"
           y="28.428593"
           id="tspan64043" /></text>
      <text
         xml:space="preserve"
         style="font-size:2.11667px;line-height:1.25;font-family:'Latin Modern Math';-inkscape-font-specification:'Latin Modern Math';letter-spacing:0px;word-spacing:0px;stroke-width:0.264583"
         x="32.668495"
         y="16.036465"
         id="text64721"><tspan
           sodipodi:role="line"
           id="tspan64719"
           style="font-size:2.11667px;stroke-width:0.264583"
           x="32.668495"
           y="16.036465">|↑↓↑↓⟩</tspan><tspan
           sodipodi:role="line"
           style="font-size:2.11667px;stroke-width:0.264583"
           x="32.668495"
           y="18.682302"
           id="tspan64723" /></text>
      <text
         xml:space="preserve"
         style="font-size:2.11667px;line-height:1.25;font-family:'Latin Modern Math';-inkscape-font-specification:'Latin Modern Math';letter-spacing:0px;word-spacing:0px;stroke-width:0.264583"
         x="34.467747"
         y="30.164274"
         id="text65651"><tspan
           sodipodi:role="line"
           id="tspan65649"
           style="font-size:2.11667px;stroke-width:0.264583"
           x="34.467747"
           y="30.164274">|↑↑↓↓⟩</tspan><tspan
           sodipodi:role="line"
           style="font-size:2.11667px;stroke-width:0.264583"
           x="34.467747"
           y="32.810112"
           id="tspan65653" /></text>
      <path
         style="fill:none;stroke:#000000;stroke-width:0.264583px;stroke-linecap:butt;stroke-linejoin:miter;stroke-opacity:1"
         d="m 49.687253,27.203415 c 0,0 0,0 0,0 z"
         id="path2446" />
      <path
         style="fill:none;stroke:#000000;stroke-width:0.264583px;stroke-linecap:butt;stroke-linejoin:miter;stroke-opacity:1"
         d="m 49.687253,27.203415 c 0,0 0,0 0,0 z"
         id="path2448" />
    </g>
    <text
       xml:space="preserve"
       style="font-size:3.52778px;line-height:1.25;font-family:'Latin Modern Math';-inkscape-font-specification:'Latin Modern Math';letter-spacing:0px;word-spacing:0px;stroke-width:0.264583"
       x="5.5941772"
       y="32.913326"
       id="text32285"><tspan
         sodipodi:role="line"
         id="tspan32283"
         style="font-style:normal;font-variant:normal;font-weight:normal;font-stretch:normal;font-size:3.52778px;font-family:'Latin Modern Roman';-inkscape-font-specification:'Latin Modern Roman, ';stroke-width:0.264583"
         x="5.5941772"
         y="32.913326">Real lattice</tspan></text>
    <text
       xml:space="preserve"
       style="font-size:3.52778px;line-height:1.25;font-family:'Latin Modern Math';-inkscape-font-specification:'Latin Modern Math';letter-spacing:0px;word-spacing:0px;stroke-width:0.264583"
       x="36.478279"
       y="40.271187"
       id="text38199"><tspan
         sodipodi:role="line"
         id="tspan38197"
         style="font-style:normal;font-variant:normal;font-weight:normal;font-stretch:normal;font-size:3.52778px;font-family:'Latin Modern Roman';-inkscape-font-specification:'Latin Modern Roman, ';stroke-width:0.264583"
         x="36.478279"
         y="40.271187">Hilbert space</tspan></text>
    <text
       xml:space="preserve"
       style="font-style:normal;font-variant:normal;font-weight:normal;font-stretch:normal;font-size:3.52778px;line-height:1.25;font-family:'Latin Modern Roman';-inkscape-font-specification:'Latin Modern Roman, ';letter-spacing:0px;word-spacing:0px;stroke-width:0.264583"
       x="74.333611"
       y="35.239651"
       id="text42515"><tspan
         sodipodi:role="line"
         id="tspan42513"
         style="font-style:normal;font-variant:normal;font-weight:normal;font-stretch:normal;font-size:3.52778px;font-family:'Latin Modern Roman';-inkscape-font-specification:'Latin Modern Roman, ';stroke-width:0.264583"
         x="74.333611"
         y="35.239651">Ising model</tspan></text>
    <g
       id="g67487">
      <text
         xml:space="preserve"
         style="font-size:2.11667px;line-height:1.25;font-family:'Latin Modern Math';-inkscape-font-specification:'Latin Modern Math';letter-spacing:0px;word-spacing:0px;stroke-width:0.264583"
         x="82.809937"
         y="6.5414391"
         id="text46711-6"><tspan
           sodipodi:role="line"
           style="font-size:2.11667px;stroke-width:0.264583"
           x="82.809937"
           y="6.5414391"
           id="tspan47461-9">0</tspan></text>
      <text
         xml:space="preserve"
         style="font-size:2.11667px;line-height:1.25;font-family:'Latin Modern Math';-inkscape-font-specification:'Latin Modern Math';letter-spacing:0px;word-spacing:0px;stroke-width:0.264583"
         x="93.08255"
         y="13.493349"
         id="text61019-1"><tspan
           sodipodi:role="line"
           style="font-size:2.11667px;stroke-width:0.264583"
           x="93.08255"
           y="13.493349"
           id="tspan61021-7">1</tspan></text>
      <text
         xml:space="preserve"
         style="font-size:2.11667px;line-height:1.25;font-family:'Latin Modern Math';-inkscape-font-specification:'Latin Modern Math';letter-spacing:0px;word-spacing:0px;stroke-width:0.264583"
         x="81.248314"
         y="14.410302"
         id="text62869-0"><tspan
           sodipodi:role="line"
           style="font-size:2.11667px;stroke-width:0.264583"
           x="81.248314"
           y="14.410302"
           id="tspan62871-3">2</tspan></text>
      <text
         xml:space="preserve"
         style="font-size:2.11667px;line-height:1.25;font-family:'Latin Modern Math';-inkscape-font-specification:'Latin Modern Math';letter-spacing:0px;word-spacing:0px;stroke-width:0.264583"
         x="87.998772"
         y="25.729574"
         id="text64041-6"><tspan
           sodipodi:role="line"
           style="font-size:2.11667px;stroke-width:0.264583"
           x="87.998772"
           y="25.729574"
           id="tspan64043-6">3</tspan></text>
      <text
         xml:space="preserve"
         style="font-size:2.11667px;line-height:1.25;font-family:'Latin Modern Math';-inkscape-font-specification:'Latin Modern Math';letter-spacing:0px;word-spacing:0px;stroke-width:0.264583"
         x="73.084869"
         y="16.270817"
         id="text64721-2"><tspan
           sodipodi:role="line"
           style="font-size:2.11667px;stroke-width:0.264583"
           x="73.084869"
           y="16.270817"
           id="tspan64723-1">4</tspan></text>
      <text
         xml:space="preserve"
         style="font-size:2.11667px;line-height:1.25;font-family:'Latin Modern Math';-inkscape-font-specification:'Latin Modern Math';letter-spacing:0px;word-spacing:0px;stroke-width:0.264583"
         x="72.861183"
         y="30.319971"
         id="text65651-8"><tspan
           sodipodi:role="line"
           style="font-size:2.11667px;stroke-width:0.264583"
           x="72.861183"
           y="30.319971"
           id="tspan65653-9">5</tspan></text>
      <path
         style="fill:none;stroke:#000000;stroke-width:0.264583px;stroke-linecap:butt;stroke-linejoin:miter;stroke-opacity:1"
         d="m 74.264459,18.079696 7.387896,-1.745079"
         id="path1114-2"
         sodipodi:nodetypes="cc" />
      <path
         style="fill:none;stroke:#000000;stroke-width:0.264583px;stroke-linecap:butt;stroke-linejoin:miter;stroke-opacity:1"
         d="M 83.351531,8.3872751 74.264459,18.079696 73.85139,27.064048"
         id="path1116-0" />
      <path
         style="fill:none;stroke:#000000;stroke-width:0.264583px;stroke-linecap:butt;stroke-linejoin:miter;stroke-opacity:1"
         d="m 83.351531,8.3872751 9.308073,6.7936189 -4.510213,7.302282"
         id="path1118-2"
         sodipodi:nodetypes="ccc" />
      <path
         style="fill:none;stroke:#000000;stroke-width:0.264583px;stroke-linecap:butt;stroke-linejoin:miter;stroke-opacity:1"
         d="M 81.652355,16.334617 92.659604,15.180894 73.85139,27.064048"
         id="path1120-3"
         sodipodi:nodetypes="ccc" />
      <path
         style="fill:none;stroke:#000000;stroke-width:0.264583px;stroke-linecap:butt;stroke-linejoin:miter;stroke-opacity:1"
         d="m 81.652353,16.334617 -7.800961,10.72943"
         id="path2329-7" />
      <path
         style="fill:none;stroke:#000000;stroke-width:0.264583px;stroke-linecap:butt;stroke-linejoin:miter;stroke-opacity:1"
         d="m 83.351531,8.3872761 4.79786,14.0958999"
         id="path2331-5"
         sodipodi:nodetypes="cc" />
      <path
         style="fill:none;stroke:#000000;stroke-width:0.264583px;stroke-linecap:butt;stroke-linejoin:miter;stroke-opacity:1"
         d="m 86.746757,27.203414 c 0,0 0,0 0,0 z"
         id="path2446-9" />
      <path
         style="fill:none;stroke:#000000;stroke-width:0.264583px;stroke-linecap:butt;stroke-linejoin:miter;stroke-opacity:1"
         d="m 86.746757,27.203414 c 0,0 0,0 0,0 z"
         id="path2448-2" />
      <g
         transform="matrix(0.211667,0,0,0.211667,75.537623,10.690132)"
         ns8:version="1.2.0"
         ns8:texconverter="pdflatex"
         ns8:pdfconverter="inkscape"
         ns8:text="$\mathcal{J}_{04}$"
         ns8:preamble="/home/tom/.config/inkscape/extensions/textext/default_packages.tex"
         ns8:scale="0.6"
         ns8:alignment="middle center"
         ns8:jacobian_sqrt="0.211667"
         id="g27601">
        <defs
           id="id-2959cbf4-8cf5-49a6-b456-71421f603ff4">
          <g
             id="id-316f0ac8-6a26-44d5-90f2-c7d17c128c60">
            <symbol
               overflow="visible"
               id="id-86033b5a-27e5-4606-8865-ac101364a017">
              <path
                 style="stroke:none;stroke-width:0"
                 d=""
                 id="id-e16e76dc-11fb-46d9-a94a-bb0a1bce6f2c" />
            </symbol>
            <symbol
               overflow="visible"
               id="id-ccf35840-c32f-492e-905d-0cc00aadabcb">
              <path
                 style="stroke:none;stroke-width:0"
                 d="m 6.125,-6.8125 c -0.953125,0 -1.78125,0.46875 -2.234375,0.796875 C 2.796875,-5.25 2.6875,-4.40625 2.6875,-4.390625 c 0,0.078125 0.046875,0.078125 0.09375,0.078125 0.234375,0 0.671875,-0.28125 0.734375,-0.46875 C 3.84375,-5.828125 4.5625,-6.265625 5.546875,-6.265625 H 6.875 C 5.765625,-5.390625 5.3125,-3.875 4.65625,-1.28125 4.421875,-0.359375 3.8125,0.640625 2.796875,0.640625 2.03125,0.640625 1.3125,0.125 1.3125,-0.75 c 0,-0.203125 0.046875,-0.359375 0.046875,-0.40625 0,-0.03125 0,-0.09375 -0.09375,-0.09375 -0.0625,0 -0.28125,0.046875 -0.5625,0.265625 -0.125,0.09375 -0.234375,0.1875 -0.234375,0.65625 0,0.921875 0.703125,1.515625 1.671875,1.515625 0.84375,0 1.65625,-0.484375 2.140625,-0.890625 C 5.203125,-0.5 5.390625,-1.21875 5.5625,-1.9375 5.9375,-3.375 6.40625,-5.1875 7.15625,-6.03125 7.3125,-6.203125 7.359375,-6.234375 7.59375,-6.265625 8.03125,-6.296875 8.375,-6.625 8.375,-6.734375 8.375,-6.796875 8.359375,-6.8125 8.140625,-6.8125 Z m 0,0"
                 id="id-469795f5-c4e3-4768-a930-774640119b21" />
            </symbol>
            <symbol
               overflow="visible"
               id="id-8521487b-f4b8-44fd-ad87-016b83e8d3b3">
              <path
                 style="stroke:none;stroke-width:0"
                 d=""
                 id="id-92d1db4d-e553-48a0-a5c0-6d46aeed59f7" />
            </symbol>
            <symbol
               overflow="visible"
               id="id-1a1c0d30-36d5-4430-ac77-6c53f6d03b77">
              <path
                 style="stroke:none;stroke-width:0"
                 d="M 3.59375,-2.21875 C 3.59375,-2.984375 3.5,-3.546875 3.1875,-4.03125 2.96875,-4.34375 2.53125,-4.625 1.984375,-4.625 c -1.625,0 -1.625,1.90625 -1.625,2.40625 0,0.5 0,2.359375 1.625,2.359375 1.609375,0 1.609375,-1.859375 1.609375,-2.359375 z M 1.984375,-0.0625 c -0.328125,0 -0.75,-0.1875 -0.890625,-0.75 C 1,-1.21875 1,-1.796875 1,-2.3125 1,-2.828125 1,-3.359375 1.09375,-3.734375 1.25,-4.28125 1.6875,-4.4375 1.984375,-4.4375 c 0.375,0 0.734375,0.234375 0.859375,0.640625 0.109375,0.375 0.125,0.875 0.125,1.484375 0,0.515625 0,1.03125 -0.09375,1.46875 -0.140625,0.640625 -0.609375,0.78125 -0.890625,0.78125 z m 0,0"
                 id="id-8d515336-351b-4a28-9954-19f85a292c5c" />
            </symbol>
            <symbol
               overflow="visible"
               id="id-7c8755ff-06db-4b34-afa1-3f6ea96c2778">
              <path
                 style="stroke:none;stroke-width:0"
                 d="m 3.6875,-1.140625 v -0.25 H 2.90625 V -4.5 c 0,-0.140625 0,-0.203125 -0.140625,-0.203125 -0.09375,0 -0.125,0 -0.1875,0.109375 l -2.3125,3.203125 v 0.25 h 2.0625 v 0.5625 c 0,0.25 0,0.328125 -0.578125,0.328125 H 1.5625 V 0 C 1.921875,-0.015625 2.359375,-0.03125 2.609375,-0.03125 2.875,-0.03125 3.3125,-0.015625 3.671875,0 v -0.25 h -0.1875 C 2.90625,-0.25 2.90625,-0.328125 2.90625,-0.578125 v -0.5625 z M 2.375,-3.9375 v 2.546875 H 0.53125 Z m 0,0"
                 id="id-ae80b1cc-3c19-4f5b-b931-4070d688a0e9" />
            </symbol>
          </g>
        </defs>
        <g
           id="id-cedaf21d-d728-4f62-9585-d164a10301b5"
           transform="translate(-149.181,-127.953)">
          <g
             style="fill:#000000;fill-opacity:1"
             id="id-e4130738-fde3-4923-b89d-a346c7a194d5">
            <g
               transform="translate(148.712,134.765)"
               id="g27590">
              <path
                 style="stroke:none;stroke-width:0"
                 d="m 6.125,-6.8125 c -0.953125,0 -1.78125,0.46875 -2.234375,0.796875 C 2.796875,-5.25 2.6875,-4.40625 2.6875,-4.390625 c 0,0.078125 0.046875,0.078125 0.09375,0.078125 0.234375,0 0.671875,-0.28125 0.734375,-0.46875 C 3.84375,-5.828125 4.5625,-6.265625 5.546875,-6.265625 H 6.875 C 5.765625,-5.390625 5.3125,-3.875 4.65625,-1.28125 4.421875,-0.359375 3.8125,0.640625 2.796875,0.640625 2.03125,0.640625 1.3125,0.125 1.3125,-0.75 c 0,-0.203125 0.046875,-0.359375 0.046875,-0.40625 0,-0.03125 0,-0.09375 -0.09375,-0.09375 -0.0625,0 -0.28125,0.046875 -0.5625,0.265625 -0.125,0.09375 -0.234375,0.1875 -0.234375,0.65625 0,0.921875 0.703125,1.515625 1.671875,1.515625 0.84375,0 1.65625,-0.484375 2.140625,-0.890625 C 5.203125,-0.5 5.390625,-1.21875 5.5625,-1.9375 5.9375,-3.375 6.40625,-5.1875 7.15625,-6.03125 7.3125,-6.203125 7.359375,-6.234375 7.59375,-6.265625 8.03125,-6.296875 8.375,-6.625 8.375,-6.734375 8.375,-6.796875 8.359375,-6.8125 8.140625,-6.8125 Z m 0,0"
                 id="id-7f436589-19ad-4e82-a65f-8053aafa4fbd" />
            </g>
          </g>
          <g
             style="fill:#000000;fill-opacity:1"
             id="id-76495a74-23af-4d38-85b7-ee482e119f5c">
            <g
               transform="translate(155.465,136.259)"
               id="g27594">
              <path
                 style="stroke:none;stroke-width:0"
                 d="M 3.59375,-2.21875 C 3.59375,-2.984375 3.5,-3.546875 3.1875,-4.03125 2.96875,-4.34375 2.53125,-4.625 1.984375,-4.625 c -1.625,0 -1.625,1.90625 -1.625,2.40625 0,0.5 0,2.359375 1.625,2.359375 1.609375,0 1.609375,-1.859375 1.609375,-2.359375 z M 1.984375,-0.0625 c -0.328125,0 -0.75,-0.1875 -0.890625,-0.75 C 1,-1.21875 1,-1.796875 1,-2.3125 1,-2.828125 1,-3.359375 1.09375,-3.734375 1.25,-4.28125 1.6875,-4.4375 1.984375,-4.4375 c 0.375,0 0.734375,0.234375 0.859375,0.640625 0.109375,0.375 0.125,0.875 0.125,1.484375 0,0.515625 0,1.03125 -0.09375,1.46875 -0.140625,0.640625 -0.609375,0.78125 -0.890625,0.78125 z m 0,0"
                 id="id-ea52aa2c-555b-40c1-89e3-760065f558de" />
            </g>
            <g
               transform="translate(159.437,136.259)"
               id="g27597">
              <path
                 style="stroke:none;stroke-width:0"
                 d="m 3.6875,-1.140625 v -0.25 H 2.90625 V -4.5 c 0,-0.140625 0,-0.203125 -0.140625,-0.203125 -0.09375,0 -0.125,0 -0.1875,0.109375 l -2.3125,3.203125 v 0.25 h 2.0625 v 0.5625 c 0,0.25 0,0.328125 -0.578125,0.328125 H 1.5625 V 0 C 1.921875,-0.015625 2.359375,-0.03125 2.609375,-0.03125 2.875,-0.03125 3.3125,-0.015625 3.671875,0 v -0.25 h -0.1875 C 2.90625,-0.25 2.90625,-0.328125 2.90625,-0.578125 v -0.5625 z M 2.375,-3.9375 v 2.546875 H 0.53125 Z m 0,0"
                 id="id-409a1b28-591a-4348-a97d-9e5bc9319638" />
            </g>
          </g>
        </g>
      </g>
      <g
         transform="matrix(0.211667,0,0,0.211667,80.284753,23.675724)"
         ns8:version="1.2.0"
         ns8:texconverter="pdflatex"
         ns8:pdfconverter="inkscape"
         ns8:text="$\mathcal{J}_{15}$"
         ns8:preamble="/home/tom/.config/inkscape/extensions/textext/default_packages.tex"
         ns8:scale="0.6"
         ns8:alignment="middle center"
         ns8:jacobian_sqrt="0.211667"
         id="g30237">
        <defs
           id="id-6db1ba47-e632-49aa-987b-e8c1352ac782">
          <g
             id="id-a8d3616d-f3aa-490c-bae7-b1cb8d7af923">
            <symbol
               overflow="visible"
               id="id-b54b0669-1e46-40ff-b658-29e5d8cf7efe">
              <path
                 style="stroke:none;stroke-width:0"
                 d=""
                 id="id-1ae28ed9-2bfe-407f-8a61-23824c88127b" />
            </symbol>
            <symbol
               overflow="visible"
               id="id-754485a2-e5e2-49e2-b9f8-2c9a84cff7fd">
              <path
                 style="stroke:none;stroke-width:0"
                 d="m 6.125,-6.8125 c -0.953125,0 -1.78125,0.46875 -2.234375,0.796875 C 2.796875,-5.25 2.6875,-4.40625 2.6875,-4.390625 c 0,0.078125 0.046875,0.078125 0.09375,0.078125 0.234375,0 0.671875,-0.28125 0.734375,-0.46875 C 3.84375,-5.828125 4.5625,-6.265625 5.546875,-6.265625 H 6.875 C 5.765625,-5.390625 5.3125,-3.875 4.65625,-1.28125 4.421875,-0.359375 3.8125,0.640625 2.796875,0.640625 2.03125,0.640625 1.3125,0.125 1.3125,-0.75 c 0,-0.203125 0.046875,-0.359375 0.046875,-0.40625 0,-0.03125 0,-0.09375 -0.09375,-0.09375 -0.0625,0 -0.28125,0.046875 -0.5625,0.265625 -0.125,0.09375 -0.234375,0.1875 -0.234375,0.65625 0,0.921875 0.703125,1.515625 1.671875,1.515625 0.84375,0 1.65625,-0.484375 2.140625,-0.890625 C 5.203125,-0.5 5.390625,-1.21875 5.5625,-1.9375 5.9375,-3.375 6.40625,-5.1875 7.15625,-6.03125 7.3125,-6.203125 7.359375,-6.234375 7.59375,-6.265625 8.03125,-6.296875 8.375,-6.625 8.375,-6.734375 8.375,-6.796875 8.359375,-6.8125 8.140625,-6.8125 Z m 0,0"
                 id="id-e03e9638-db62-4bcf-bdad-9fa41d941d05" />
            </symbol>
            <symbol
               overflow="visible"
               id="id-2a82b132-ae81-4c8d-8f48-0e9fe680d4b5">
              <path
                 style="stroke:none;stroke-width:0"
                 d=""
                 id="id-a1bf2f98-2c1a-4ed2-b001-bfae7b2e7497" />
            </symbol>
            <symbol
               overflow="visible"
               id="id-35c83deb-911d-4280-b92c-d8eaf9cdbe77">
              <path
                 style="stroke:none;stroke-width:0"
                 d="m 2.328125,-4.4375 c 0,-0.1875 0,-0.1875 -0.203125,-0.1875 -0.453125,0.4375 -1.078125,0.4375 -1.359375,0.4375 v 0.25 c 0.15625,0 0.625,0 1,-0.1875 v 3.546875 c 0,0.234375 0,0.328125 -0.6875,0.328125 H 0.8125 V 0 c 0.125,0 0.984375,-0.03125 1.234375,-0.03125 0.21875,0 1.09375,0.03125 1.25,0.03125 V -0.25 H 3.03125 c -0.703125,0 -0.703125,-0.09375 -0.703125,-0.328125 z m 0,0"
                 id="id-a4f0ea50-541a-435b-8c62-bd52ffc016a2" />
            </symbol>
            <symbol
               overflow="visible"
               id="id-6a38d206-9c0f-4ab9-9551-b77fa4a85300">
              <path
                 style="stroke:none;stroke-width:0"
                 d="m 1.078125,-3.890625 c 0.359375,0.09375 0.5625,0.09375 0.671875,0.09375 0.921875,0 1.46875,-0.625 1.46875,-0.734375 0,-0.078125 -0.046875,-0.09375 -0.078125,-0.09375 -0.015625,0 -0.03125,0 -0.0625,0.015625 -0.171875,0.0625 -0.53125,0.203125 -1.046875,0.203125 -0.203125,0 -0.5625,-0.015625 -1.015625,-0.1875 C 0.9375,-4.625 0.921875,-4.625 0.921875,-4.625 c -0.09375,0 -0.09375,0.078125 -0.09375,0.1875 v 2.046875 c 0,0.125 0,0.203125 0.109375,0.203125 0.0625,0 0.078125,0 0.140625,-0.09375 0.296875,-0.375 0.734375,-0.4375 0.96875,-0.4375 0.421875,0 0.609375,0.328125 0.640625,0.390625 0.125,0.234375 0.171875,0.5 0.171875,0.90625 0,0.203125 0,0.609375 -0.21875,0.921875 -0.171875,0.25 -0.46875,0.421875 -0.8125,0.421875 -0.453125,0 -0.921875,-0.25 -1.09375,-0.71875 0.265625,0.015625 0.40625,-0.15625 0.40625,-0.34375 0,-0.296875 -0.265625,-0.34375 -0.359375,-0.34375 0,0 -0.34375,0 -0.34375,0.375 0,0.625 0.578125,1.25 1.40625,1.25 0.890625,0 1.671875,-0.65625 1.671875,-1.546875 0,-0.78125 -0.59375,-1.5 -1.453125,-1.5 -0.3125,0 -0.671875,0.0625 -0.984375,0.328125 z m 0,0"
                 id="id-b2e301cc-bbc6-4a89-845f-bd030aa18455" />
            </symbol>
          </g>
        </defs>
        <g
           id="id-c000e59f-4c2a-4feb-825f-31f9888df6c7"
           transform="translate(-149.181,-127.953)">
          <g
             style="fill:#000000;fill-opacity:1"
             id="id-bec57c04-205a-46ea-b6c5-69ef422758ad">
            <g
               transform="translate(148.712,134.765)"
               id="g30226">
              <path
                 style="stroke:none;stroke-width:0"
                 d="m 6.125,-6.8125 c -0.953125,0 -1.78125,0.46875 -2.234375,0.796875 C 2.796875,-5.25 2.6875,-4.40625 2.6875,-4.390625 c 0,0.078125 0.046875,0.078125 0.09375,0.078125 0.234375,0 0.671875,-0.28125 0.734375,-0.46875 C 3.84375,-5.828125 4.5625,-6.265625 5.546875,-6.265625 H 6.875 C 5.765625,-5.390625 5.3125,-3.875 4.65625,-1.28125 4.421875,-0.359375 3.8125,0.640625 2.796875,0.640625 2.03125,0.640625 1.3125,0.125 1.3125,-0.75 c 0,-0.203125 0.046875,-0.359375 0.046875,-0.40625 0,-0.03125 0,-0.09375 -0.09375,-0.09375 -0.0625,0 -0.28125,0.046875 -0.5625,0.265625 -0.125,0.09375 -0.234375,0.1875 -0.234375,0.65625 0,0.921875 0.703125,1.515625 1.671875,1.515625 0.84375,0 1.65625,-0.484375 2.140625,-0.890625 C 5.203125,-0.5 5.390625,-1.21875 5.5625,-1.9375 5.9375,-3.375 6.40625,-5.1875 7.15625,-6.03125 7.3125,-6.203125 7.359375,-6.234375 7.59375,-6.265625 8.03125,-6.296875 8.375,-6.625 8.375,-6.734375 8.375,-6.796875 8.359375,-6.8125 8.140625,-6.8125 Z m 0,0"
                 id="id-175bb650-f69d-40a5-af08-e7cbab1aeaa5" />
            </g>
          </g>
          <g
             style="fill:#000000;fill-opacity:1"
             id="id-e3c37082-9a67-4b12-8654-2403a4042642">
            <g
               transform="translate(155.465,136.259)"
               id="g30230">
              <path
                 style="stroke:none;stroke-width:0"
                 d="m 2.328125,-4.4375 c 0,-0.1875 0,-0.1875 -0.203125,-0.1875 -0.453125,0.4375 -1.078125,0.4375 -1.359375,0.4375 v 0.25 c 0.15625,0 0.625,0 1,-0.1875 v 3.546875 c 0,0.234375 0,0.328125 -0.6875,0.328125 H 0.8125 V 0 c 0.125,0 0.984375,-0.03125 1.234375,-0.03125 0.21875,0 1.09375,0.03125 1.25,0.03125 V -0.25 H 3.03125 c -0.703125,0 -0.703125,-0.09375 -0.703125,-0.328125 z m 0,0"
                 id="id-7be136f6-d448-4e04-b16c-7cb2ad279668" />
            </g>
            <g
               transform="translate(159.437,136.259)"
               id="g30233">
              <path
                 style="stroke:none;stroke-width:0"
                 d="m 1.078125,-3.890625 c 0.359375,0.09375 0.5625,0.09375 0.671875,0.09375 0.921875,0 1.46875,-0.625 1.46875,-0.734375 0,-0.078125 -0.046875,-0.09375 -0.078125,-0.09375 -0.015625,0 -0.03125,0 -0.0625,0.015625 -0.171875,0.0625 -0.53125,0.203125 -1.046875,0.203125 -0.203125,0 -0.5625,-0.015625 -1.015625,-0.1875 C 0.9375,-4.625 0.921875,-4.625 0.921875,-4.625 c -0.09375,0 -0.09375,0.078125 -0.09375,0.1875 v 2.046875 c 0,0.125 0,0.203125 0.109375,0.203125 0.0625,0 0.078125,0 0.140625,-0.09375 0.296875,-0.375 0.734375,-0.4375 0.96875,-0.4375 0.421875,0 0.609375,0.328125 0.640625,0.390625 0.125,0.234375 0.171875,0.5 0.171875,0.90625 0,0.203125 0,0.609375 -0.21875,0.921875 -0.171875,0.25 -0.46875,0.421875 -0.8125,0.421875 -0.453125,0 -0.921875,-0.25 -1.09375,-0.71875 0.265625,0.015625 0.40625,-0.15625 0.40625,-0.34375 0,-0.296875 -0.265625,-0.34375 -0.359375,-0.34375 0,0 -0.34375,0 -0.34375,0.375 0,0.625 0.578125,1.25 1.40625,1.25 0.890625,0 1.671875,-0.65625 1.671875,-1.546875 0,-0.78125 -0.59375,-1.5 -1.453125,-1.5 -0.3125,0 -0.671875,0.0625 -0.984375,0.328125 z m 0,0"
                 id="id-9086dc2b-166c-4983-a365-05d5b1af302d" />
            </g>
          </g>
        </g>
      </g>
      <circle
         style="fill:#e3a5c4;fill-opacity:1;stroke:#000000;stroke-width:0.25932;stroke-miterlimit:4;stroke-dasharray:none;stroke-opacity:1"
         id="path846-3-3-6"
         cx="74.264465"
         cy="18.079697"
         r="1.1522651" />
      <circle
         style="fill:#e3a5c4;fill-opacity:1;stroke:#000000;stroke-width:0.25932;stroke-miterlimit:4;stroke-dasharray:none;stroke-opacity:1"
         id="path846-3-2-5"
         cx="81.652359"
         cy="16.334618"
         r="1.1522651" />
      <circle
         style="fill:#e3a5c4;fill-opacity:1;stroke:#000000;stroke-width:0.25932;stroke-miterlimit:4;stroke-dasharray:none;stroke-opacity:1"
         id="path846-3-56-7"
         cx="83.351532"
         cy="8.3872766"
         r="1.1522651" />
      <circle
         style="fill:#e3a5c4;fill-opacity:1;stroke:#000000;stroke-width:0.25932;stroke-miterlimit:4;stroke-dasharray:none;stroke-opacity:1"
         id="path846-3-9-3"
         cx="73.851395"
         cy="27.064047"
         r="1.1522651" />
      <circle
         style="fill:#e3a5c4;fill-opacity:1;stroke:#000000;stroke-width:0.25932;stroke-miterlimit:4;stroke-dasharray:none;stroke-opacity:1"
         id="path846-3-1-5"
         cx="88.149391"
         cy="22.483177"
         r="1.1522651" />
      <circle
         style="fill:#e3a5c4;fill-opacity:1;stroke:#000000;stroke-width:0.25932;stroke-miterlimit:4;stroke-dasharray:none;stroke-opacity:1"
         id="path846-3-5-3"
         cx="92.659607"
         cy="15.180895"
         r="1.1522651" />
    </g>
    <path
       style="fill:none;stroke:#000000;stroke-width:0.365;stroke-linecap:round;stroke-linejoin:miter;stroke-miterlimit:4;stroke-dasharray:0.73, 1.46;stroke-dashoffset:0.949;stroke-opacity:1"
       d="m 38.530041,5.1124238 c 1.77918,-0.6658877 3.525642,-1.4328478 5.326139,-2.0347172 0.788972,-0.2637362 1.601772,-0.3883885 2.404369,-0.594764 1.615554,-0.4154147 3.296976,-0.8353621 4.991325,-0.6417184 1.031746,0.1179163 3.68967,0.9873388 4.534834,1.6121227 0.641808,0.4744522 1.327738,0.9958403 2.039125,1.3616948 0.563801,0.289954 1.204201,0.5374217 1.734812,0.8921461 0.623174,0.4166037 1.218367,0.8806508 1.856539,1.2834366 0.710568,0.4484801 1.727412,0.8520634 2.130441,1.6434234 0.498002,0.9778415 0.177469,2.0763522 0.426083,3.0990332 0.103462,0.425598 0.460869,0.683579 0.70001,1.017355 0.32529,0.454012 0.683684,1.165858 0.760873,1.721685 0.16147,1.162696 -0.180975,1.641779 -0.913053,2.394706 -0.676434,0.695703 -1.218528,1.503457 -2.00869,2.097325 -0.312531,0.23489 -0.690071,0.375317 -1.004372,0.610415 -0.641014,0.479482 -1.3385,1.481694 -1.43043,2.285148 -0.0427,0.373171 -0.103896,0.782302 -0.06089,1.158221 0.08121,0.709752 0.786519,1.358427 1.065234,2.003416 0.576408,1.333906 1.854708,3.811698 0.36522,5.008531 -0.799251,0.642215 -1.900251,0.929954 -2.860884,1.252137 -2.407758,0.80753 -5.093068,0.79184 -7.60876,0.719974 -1.712921,-0.04894 -3.421515,-0.329827 -5.143529,-0.219125 -2.061896,0.132551 -4.085985,0.838086 -6.117418,1.173877 -2.867131,0.473932 -4.749734,0.490093 -7.669623,-0.250423 -1.436198,-0.364236 -3.133058,-0.861796 -4.017433,-2.191234 -0.262531,-0.39465 -0.379985,-0.868564 -0.578263,-1.299094 -0.143794,-0.312224 -0.376717,-0.598913 -0.426083,-0.939096 -0.08429,-0.580803 0.152213,-0.831657 0.304334,-1.330394 0.101082,-0.331404 0.12533,-0.682173 0.213067,-1.017356 0.168246,-0.642754 0.649045,-1.232353 1.095637,-1.706034 0.57118,-0.605823 1.422152,-1.009812 1.704385,-1.862551 0.797838,-2.410597 -2.483008,-3.500759 -2.039149,-6.057193 0.215268,-1.239847 1.948773,-1.796355 2.921746,-2.253841 1.226553,-0.576721 2.903189,-1.472915 3.865253,-2.410358 0.847172,-0.82549 0.681988,-1.6520551 0.943486,-2.6607846 0.077,-0.2970308 0.273262,-0.5411065 0.39565,-0.8138882 0.179927,-0.4010226 0.222636,-0.8681636 0.395653,-1.2834366 0.348355,-0.8361233 1.236712,-1.0738467 1.704358,-1.7686388 z"
       id="path47575" />
  </g>
</svg>
