<?xml version="1.0" encoding="UTF-8" standalone="no"?>
<!-- Created with Inkscape (http://www.inkscape.org/) -->

<svg
   width="65.06662mm"
   height="40.782665mm"
   viewBox="0 0 65.06662 40.782665"
   version="1.1"
   id="svg119937"
   sodipodi:docname="subsystem.svg"
   inkscape:version="1.1.2 (0a00cf5339, 2022-02-04)"
   xmlns:inkscape="http://www.inkscape.org/namespaces/inkscape"
   xmlns:sodipodi="http://sodipodi.sourceforge.net/DTD/sodipodi-0.dtd"
   xmlns="http://www.w3.org/2000/svg"
   xmlns:svg="http://www.w3.org/2000/svg"
   xmlns:ns8="http://www.iki.fi/pav/software/textext/">
  <sodipodi:namedview
     id="namedview119939"
     pagecolor="#ffffff"
     bordercolor="#666666"
     borderopacity="1.0"
     inkscape:pageshadow="2"
     inkscape:pageopacity="0.0"
     inkscape:pagecheckerboard="0"
     inkscape:document-units="mm"
     showgrid="false"
     inkscape:snap-object-midpoints="true"
     inkscape:zoom="3.6233469"
     inkscape:cx="106.39335"
     inkscape:cy="103.08149"
     inkscape:window-width="2560"
     inkscape:window-height="1417"
     inkscape:window-x="1920"
     inkscape:window-y="23"
     inkscape:window-maximized="1"
     inkscape:current-layer="layer1"
     fit-margin-top="0"
     fit-margin-left="0"
     fit-margin-right="0"
     fit-margin-bottom="0" />
  <defs
     id="defs119934" />
  <g
     inkscape:label="Layer 1"
     inkscape:groupmode="layer"
     id="layer1"
     transform="translate(-15.89958,-4.2461246)">
    <path
       style="fill:none;stroke:#000000;stroke-width:0.319;stroke-linecap:butt;stroke-linejoin:miter;stroke-miterlimit:4;stroke-dasharray:none;stroke-opacity:1"
       d="m 70.738875,18.071975 -4.853623,8.571281 7.641871,8.364743 5.783027,-12.082409 z"
       id="path128089" />
    <path
       style="fill:none;stroke:#ff0000;stroke-width:0.319;stroke-linecap:butt;stroke-linejoin:miter;stroke-miterlimit:4;stroke-dasharray:none;stroke-opacity:1"
       d="M 53.573044,16.103256 63.923155,9.1908901"
       id="path128081" />
    <path
       style="fill:none;stroke:#ff0000;stroke-width:0.319;stroke-linecap:butt;stroke-linejoin:miter;stroke-miterlimit:4;stroke-dasharray:none;stroke-opacity:1"
       d="M 61.961056,39.448538 51.221142,23.545202 65.885254,26.643255"
       id="path128083" />
    <path
       style="fill:none;stroke:#000000;stroke-width:0.319;stroke-linecap:butt;stroke-linejoin:miter;stroke-miterlimit:4;stroke-dasharray:none;stroke-opacity:1"
       d="m 36.722518,14.400942 8.650996,4.0454"
       id="path120493" />
    <path
       style="fill:none;stroke:#000000;stroke-width:0.319;stroke-linecap:butt;stroke-linejoin:miter;stroke-miterlimit:4;stroke-dasharray:none;stroke-opacity:1"
       d="M 46.160988,9.2941589 45.373514,18.446342"
       id="path120495" />
    <path
       style="fill:none;stroke:#000000;stroke-width:0.319;stroke-linecap:butt;stroke-linejoin:miter;stroke-miterlimit:4;stroke-dasharray:none;stroke-opacity:1"
       d="M 51.221142,23.545202 53.573044,16.103256 46.160988,9.2941589 Z"
       id="path120497" />
    <path
       style="fill:none;stroke:#000000;stroke-width:0.319;stroke-linecap:butt;stroke-linejoin:miter;stroke-miterlimit:4;stroke-dasharray:none;stroke-opacity:1"
       d="m 36.722518,14.400942 4.847008,10.67715"
       id="path120499" />
    <path
       style="fill:none;stroke:#000000;stroke-width:0.319;stroke-linecap:butt;stroke-linejoin:miter;stroke-miterlimit:4;stroke-dasharray:none;stroke-opacity:1"
       d="m 41.569526,25.078092 -5.87329,2.756971 9.67728,-9.388721"
       id="path120501" />
    <path
       style="fill:none;stroke:#ff0000;stroke-width:0.319;stroke-linecap:butt;stroke-linejoin:miter;stroke-miterlimit:4;stroke-dasharray:none;stroke-opacity:1"
       d="M 17.555633,21.583101 36.722518,14.400942"
       id="path128085" />
    <path
       style="fill:none;stroke:#000000;stroke-width:0.319;stroke-linecap:butt;stroke-linejoin:miter;stroke-miterlimit:4;stroke-dasharray:none;stroke-opacity:1"
       d="M 25.300764,7.7451319 17.555633,21.583101"
       id="path128087" />
    <circle
       style="fill:#e3a5c4;fill-opacity:1;stroke:#000000;stroke-width:0.365001;stroke-linecap:round;stroke-linejoin:round;stroke-miterlimit:4;stroke-dasharray:none;stroke-dashoffset:0.949;stroke-opacity:1"
       id="path67947-9-73-15-9-04"
       cx="36.722519"
       cy="14.400942"
       r="1.4735527" />
    <circle
       style="fill:#e3a5c4;fill-opacity:1;stroke:#000000;stroke-width:0.365001;stroke-linecap:round;stroke-linejoin:round;stroke-miterlimit:4;stroke-dasharray:none;stroke-dashoffset:0.949;stroke-opacity:1"
       id="path67947-9-73-15-9-04-3"
       cx="45.373516"
       cy="18.446342"
       r="1.4735527" />
    <circle
       style="fill:#e3a5c4;fill-opacity:1;stroke:#000000;stroke-width:0.365001;stroke-linecap:round;stroke-linejoin:round;stroke-miterlimit:4;stroke-dasharray:none;stroke-dashoffset:0.949;stroke-opacity:1"
       id="path67947-9-73-15-9-04-1"
       cx="35.696236"
       cy="27.835064"
       r="1.4735527" />
    <circle
       style="fill:#e3a5c4;fill-opacity:1;stroke:#000000;stroke-width:0.365001;stroke-linecap:round;stroke-linejoin:round;stroke-miterlimit:4;stroke-dasharray:none;stroke-dashoffset:0.949;stroke-opacity:1"
       id="path67947-9-73-15-9-04-7"
       cx="53.573044"
       cy="16.103256"
       r="1.4735527" />
    <circle
       style="fill:#e3a5c4;fill-opacity:1;stroke:#000000;stroke-width:0.365001;stroke-linecap:round;stroke-linejoin:round;stroke-miterlimit:4;stroke-dasharray:none;stroke-dashoffset:0.949;stroke-opacity:1"
       id="path67947-9-73-15-9-04-5"
       cx="41.569527"
       cy="25.078093"
       r="1.4735527" />
    <circle
       style="fill:#e3a5c4;fill-opacity:1;stroke:#000000;stroke-width:0.365001;stroke-linecap:round;stroke-linejoin:round;stroke-miterlimit:4;stroke-dasharray:none;stroke-dashoffset:0.949;stroke-opacity:1"
       id="path67947-9-73-15-9-04-2"
       cx="65.885254"
       cy="26.643255"
       r="1.4735527" />
    <circle
       style="fill:#e3a5c4;fill-opacity:1;stroke:#000000;stroke-width:0.365001;stroke-linecap:round;stroke-linejoin:round;stroke-miterlimit:4;stroke-dasharray:none;stroke-dashoffset:0.949;stroke-opacity:1"
       id="path67947-9-73-15-9-04-17"
       cx="70.738876"
       cy="18.071976"
       r="1.4735527" />
    <circle
       style="fill:#e3a5c4;fill-opacity:1;stroke:#000000;stroke-width:0.365001;stroke-linecap:round;stroke-linejoin:round;stroke-miterlimit:4;stroke-dasharray:none;stroke-dashoffset:0.949;stroke-opacity:1"
       id="path67947-9-73-15-9-04-8"
       cx="63.923157"
       cy="9.1908903"
       r="1.4735527" />
    <circle
       style="fill:#e3a5c4;fill-opacity:1;stroke:#000000;stroke-width:0.365001;stroke-linecap:round;stroke-linejoin:round;stroke-miterlimit:4;stroke-dasharray:none;stroke-dashoffset:0.949;stroke-opacity:1"
       id="path67947-9-73-15-9-04-57"
       cx="25.300764"
       cy="7.745132"
       r="1.4735527" />
    <circle
       style="fill:#e3a5c4;fill-opacity:1;stroke:#000000;stroke-width:0.365001;stroke-linecap:round;stroke-linejoin:round;stroke-miterlimit:4;stroke-dasharray:none;stroke-dashoffset:0.949;stroke-opacity:1"
       id="path67947-9-73-15-9-04-4"
       cx="17.555634"
       cy="21.583101"
       r="1.4735527" />
    <circle
       style="fill:#e3a5c4;fill-opacity:1;stroke:#000000;stroke-width:0.365001;stroke-linecap:round;stroke-linejoin:round;stroke-miterlimit:4;stroke-dasharray:none;stroke-dashoffset:0.949;stroke-opacity:1"
       id="path67947-9-73-15-9-04-18"
       cx="27.882475"
       cy="36.143951"
       r="1.4735527" />
    <circle
       style="fill:#e3a5c4;fill-opacity:1;stroke:#000000;stroke-width:0.365001;stroke-linecap:round;stroke-linejoin:round;stroke-miterlimit:4;stroke-dasharray:none;stroke-dashoffset:0.949;stroke-opacity:1"
       id="path67947-9-73-15-9-04-59"
       cx="43.26947"
       cy="43.372738"
       r="1.4735527" />
    <circle
       style="fill:#e3a5c4;fill-opacity:1;stroke:#000000;stroke-width:0.365001;stroke-linecap:round;stroke-linejoin:round;stroke-miterlimit:4;stroke-dasharray:none;stroke-dashoffset:0.949;stroke-opacity:1"
       id="path67947-9-73-15-9-04-75"
       cx="61.961056"
       cy="39.44854"
       r="1.4735527" />
    <circle
       style="fill:#e3a5c4;fill-opacity:1;stroke:#000000;stroke-width:0.365001;stroke-linecap:round;stroke-linejoin:round;stroke-miterlimit:4;stroke-dasharray:none;stroke-dashoffset:0.949;stroke-opacity:1"
       id="path67947-9-73-15-9-04-38"
       cx="73.527122"
       cy="35.007999"
       r="1.4735527" />
    <circle
       style="fill:#e3a5c4;fill-opacity:1;stroke:#000000;stroke-width:0.365001;stroke-linecap:round;stroke-linejoin:round;stroke-miterlimit:4;stroke-dasharray:none;stroke-dashoffset:0.949;stroke-opacity:1"
       id="path67947-9-73-15-9-04-83"
       cx="79.31015"
       cy="22.925591"
       r="1.4735527" />
    <circle
       style="fill:#e3a5c4;fill-opacity:1;stroke:#000000;stroke-width:0.365001;stroke-linecap:round;stroke-linejoin:round;stroke-miterlimit:4;stroke-dasharray:none;stroke-dashoffset:0.949;stroke-opacity:1"
       id="path67947-9-73-15-9-04-9"
       cx="46.160988"
       cy="9.2941589"
       r="1.4735527" />
    <circle
       style="fill:#e3a5c4;fill-opacity:1;stroke:#000000;stroke-width:0.365001;stroke-linecap:round;stroke-linejoin:round;stroke-miterlimit:4;stroke-dasharray:none;stroke-dashoffset:0.949;stroke-opacity:1"
       id="path67947-9-73-15-9-04-6"
       cx="51.221142"
       cy="23.545202"
       r="1.4735527" />
    <path
       style="fill:none;stroke:#000000;stroke-width:0.665;stroke-linecap:round;stroke-linejoin:miter;stroke-miterlimit:4;stroke-dasharray:1.995, 1.995;stroke-dashoffset:0;stroke-opacity:1"
       d="m 39.445692,5.8840502 c 3.534574,-1.3623997 7.209723,-1.6098465 10.92618,-1.0017083 0.947978,0.1551212 2.048224,0.2550877 2.921746,0.7043261 1.362956,0.7009458 2.470978,1.7060114 3.500033,2.8173045 0.165502,0.1787268 0.248343,0.4043291 0.365222,0.6104144 0.295339,0.5207494 0.691068,1.0504391 1.034778,1.5495121 0.523166,0.759651 1.123942,1.591521 1.491316,2.441664 0.338979,0.784441 0.427852,2.905455 0.304358,3.678143 -0.09468,0.592407 -0.254275,1.352195 -0.608692,1.862545 -0.104622,0.150648 -0.551474,0.697814 -0.700014,0.954754 -0.391427,0.67708 -0.723955,1.399773 -1.186955,2.034717 -0.44599,0.611614 -1.013981,1.118392 -1.521772,1.674727 -0.786614,0.86181 -1.517925,1.761948 -2.313051,2.613831 -0.70639,0.756809 -1.288352,1.546 -2.160873,2.144281 -0.701125,0.480756 -1.47882,0.833189 -2.22176,1.23648 -4.153249,2.254525 -8.68872,3.773305 -13.452273,3.944226 -2.384648,0.08556 -5.007949,0.107749 -7.182678,-1.033013 -2.29896,-1.205928 -3.136826,-2.083697 -3.378285,-4.773763 -0.170975,-1.904807 2.146424,-4.405515 3.013062,-6.151102 0.292497,-0.589147 0.459547,-1.226733 0.639151,-1.846901 0.155625,-0.53737 0.167336,-0.365914 0.36522,-0.829538 0.201668,-0.472481 0.311582,-1.005933 0.486947,-1.48691 0.048,-0.131656 0.150405,-0.78934 0.152178,-0.798232 0.177096,-0.888004 0.383244,-1.738028 0.791305,-2.551223 0.481182,-0.958911 1.217264,-1.611995 1.947855,-2.363406 1.143696,-1.176286 2.302618,-2.2592134 3.560895,-3.3181537 0.287178,-0.2416831 1.899208,-1.762856 2.160873,-1.8782008 0.330996,-0.1459074 0.713086,-0.1864802 1.065234,-0.2347743 z"
       id="path120312" />
    <g
       transform="matrix(0.67016652,0,0,0.67016652,28.32433,24.232479)"
       ns8:version="1.2.0"
       ns8:texconverter="pdflatex"
       ns8:pdfconverter="inkscape"
       ns8:text="$\mathcal{C}$"
       ns8:preamble="/home/tom/.config/inkscape/extensions/textext/default_packages.tex"
       ns8:scale="0.6"
       ns8:alignment="middle center"
       ns8:jacobian_sqrt="0.211667"
       id="g128015">
      <defs
         id="id-9fee6203-4348-4f74-ad6f-8a72a144c1cc">
        <g
           id="id-d67ef734-4419-46a3-8126-a3c21c6b3e28">
          <symbol
             overflow="visible"
             id="id-84145d35-e990-467e-b21d-010391b0bb86">
            <path
               style="stroke:none;stroke-width:0"
               d=""
               id="id-e4fe3154-9930-4851-a4e0-71dbf2c4cd92" />
          </symbol>
          <symbol
             overflow="visible"
             id="id-3750f659-bb64-46a8-bab3-28e6dcbee7f6">
            <path
               style="stroke:none;stroke-width:0"
               d="m 4.9375,-1.5625 c 0,-0.0625 -0.046875,-0.078125 -0.09375,-0.078125 -0.171875,0 -0.40625,0.15625 -0.421875,0.15625 -0.1875,0.125 -0.234375,0.203125 -0.359375,0.375 -0.296875,0.46875 -0.75,0.796875 -1.390625,0.796875 -0.890625,0 -1.703125,-0.640625 -1.703125,-2.140625 0,-0.890625 0.359375,-2.078125 0.890625,-2.875 0.4375,-0.640625 0.96875,-1.15625 2,-1.15625 0.375,0 0.609375,0.140625 0.609375,0.515625 0,0.34375 -0.359375,1.046875 -0.484375,1.25 -0.0625,0.109375 -0.0625,0.140625 -0.0625,0.15625 0,0.0625 0.0625,0.0625 0.109375,0.0625 0.203125,0 0.578125,-0.21875 0.6875,-0.375 0.03125,-0.046875 0.609375,-1.015625 0.609375,-1.53125 0,-0.546875 -0.453125,-0.625 -0.8125,-0.625 -1.4375,0 -2.625,0.953125 -3.09375,1.515625 C 0.234375,-4.09375 0.125,-2.546875 0.125,-2.03125 0.125,-0.5625 0.859375,0.234375 2.015625,0.234375 3.625,0.234375 4.9375,-1.3125 4.9375,-1.5625 Z m 0,0"
               id="id-821c1589-a604-4107-b2eb-046785604c1b" />
          </symbol>
        </g>
      </defs>
      <g
         id="id-16bdabde-3dc2-436f-acaf-dcc6bfbc7b68"
         transform="translate(-148.837,-127.734)">
        <g
           style="fill:#000000;fill-opacity:1"
           id="id-bf7ba8d3-c84e-4580-93e0-847fe372d75b">
          <g
             transform="translate(148.712,134.765)"
             id="g128011">
            <path
               style="stroke:none;stroke-width:0"
               d="m 4.9375,-1.5625 c 0,-0.0625 -0.046875,-0.078125 -0.09375,-0.078125 -0.171875,0 -0.40625,0.15625 -0.421875,0.15625 -0.1875,0.125 -0.234375,0.203125 -0.359375,0.375 -0.296875,0.46875 -0.75,0.796875 -1.390625,0.796875 -0.890625,0 -1.703125,-0.640625 -1.703125,-2.140625 0,-0.890625 0.359375,-2.078125 0.890625,-2.875 0.4375,-0.640625 0.96875,-1.15625 2,-1.15625 0.375,0 0.609375,0.140625 0.609375,0.515625 0,0.34375 -0.359375,1.046875 -0.484375,1.25 -0.0625,0.109375 -0.0625,0.140625 -0.0625,0.15625 0,0.0625 0.0625,0.0625 0.109375,0.0625 0.203125,0 0.578125,-0.21875 0.6875,-0.375 0.03125,-0.046875 0.609375,-1.015625 0.609375,-1.53125 0,-0.546875 -0.453125,-0.625 -0.8125,-0.625 -1.4375,0 -2.625,0.953125 -3.09375,1.515625 C 0.234375,-4.09375 0.125,-2.546875 0.125,-2.03125 0.125,-0.5625 0.859375,0.234375 2.015625,0.234375 3.625,0.234375 4.9375,-1.3125 4.9375,-1.5625 Z m 0,0"
               id="id-b11d0253-28d7-49bc-83e1-7205fb5ca6d3" />
          </g>
        </g>
      </g>
    </g>
  </g>
</svg>
